Coordinates
version=1
nRows=24
nColumns=22
inDegrees=yes

Units are S.I. units (second, meters, Newtons, ...)
If the header above contains a line with 'inDegrees', this indicates whether rotational values are in degrees (yes) or radians (no).

endheader
time	pelvis_tilt	pelvis_list	pelvis_rotation	pelvis_tx	pelvis_ty	pelvis_tz	hip_flexion_r	hip_adduction_r	hip_rotation_r	knee_angle_r	ankle_angle_r	subtalar_angle_r	hip_flexion_l	hip_adduction_l	hip_rotation_l	knee_angle_l	ankle_angle_l	subtalar_angle_l	lumbar_extension	lumbar_bending	lumbar_rotation
      5.59000000	     -2.01616288	     -5.01072920	    279.16335265	     -0.50903524	      0.92678768	      0.49676020	     15.19335760	     -5.95810959	      1.37857497	    -65.43729423	    -10.46929767	     16.55445140	      5.09992377	      4.48477872	    -18.10413044	    -19.83938971	      9.05438185	    -13.38889131	     -7.06771351	     -4.89326555	      5.16142676
      5.60000000	     -1.92057947	     -5.00578939	    280.83364185	     -0.50478967	      0.92716009	      0.50301419	     16.03957473	     -6.07837128	      1.10648009	    -64.44375984	     -9.35248264	     16.18927014	      4.40443741	      4.84156470	    -16.57185672	    -19.37523589	      9.07825894	    -13.29172065	     -7.15020941	     -4.80863654	      4.68783756
      5.61000000	     -1.80691552	     -5.01448155	    282.49464917	     -0.50055541	      0.92748921	      0.50916635	     16.79576087	     -6.22610327	      0.85385613	    -63.25011677	     -8.22318344	     15.57973024	      3.68438454	      5.17232429	    -15.06586558	    -18.92378234	      9.12422303	    -13.19174319	     -7.25442880	     -4.74370385	      4.23927806
      5.62000000	     -1.67516600	     -5.00632572	    284.17422646	     -0.49631015	      0.92773931	      0.51520290	     17.49483132	     -6.40454833	      0.61199183	    -61.87603242	     -7.20229137	     14.99056111	      2.98226393	      5.48847629	    -13.51242622	    -18.50015632	      9.15241952	    -13.11066269	     -7.34971244	     -4.70569107	      3.77681961
      5.63000000	     -1.52593652	     -4.99460629	    285.85171919	     -0.49208271	      0.92793484	      0.52115672	     18.11811838	     -6.60304334	      0.38776509	    -60.32244061	     -6.25588476	     14.33629011	      2.28575203	      5.78220980	    -11.94595400	    -18.11358285	      9.18514940	    -13.03614446	     -7.44926185	     -4.69247715	      3.31846726
      5.64000000	     -1.36288132	     -4.97623214	    287.52840056	     -0.48787302	      0.92807082	      0.52705658	     18.66449676	     -6.81308452	      0.17755553	    -58.59878020	     -5.38404398	     13.63128931	      1.60570008	      6.05004025	    -10.36831934	    -17.78021924	      9.22771783	    -12.96704764	     -7.54573783	     -4.70158596	      2.86357085
      5.65000000	     -1.19390730	     -4.94643405	    289.19912775	     -0.48369759	      0.92814032	      0.53289933	     19.14226973	     -7.02271166	     -0.01730611	    -56.71072050	     -4.60090682	     12.93111693	      0.95592845	      6.28605535	     -8.77905639	    -17.51051914	      9.28893613	    -12.90295311	     -7.63433787	     -4.72677809	      2.40723552
      5.66000000	     -1.02753899	     -4.90393675	    290.86671907	     -0.47956774	      0.92813666	      0.53868478	     19.55486961	     -7.21888209	     -0.19938561	    -54.66511811	     -3.92953925	     12.28018217	      0.35038976	      6.48411156	     -7.17267158	    -17.32120722	      9.36847512	    -12.84256127	     -7.71203911	     -4.76114710	      1.94925614
      5.67000000	     -0.87158580	     -4.84259808	    292.53019124	     -0.47549097	      0.92803680	      0.54441503	     19.91294283	     -7.39302225	     -0.36637534	    -52.47386745	     -3.34174735	     11.69062361	     -0.19663764	      6.64146103	     -5.55856420	    -17.21885898	      9.48882770	    -12.78055054	     -7.76920509	     -4.79930697	      1.48189574
      5.68000000	     -0.73859838	     -4.75950471	    294.19242524	     -0.47148063	      0.92783467	      0.55008259	     20.22486291	     -7.52975494	     -0.51241742	    -50.13919287	     -2.88014227	     11.22542261	     -0.67298363	      6.75156848	     -3.93884044	    -17.20522161	      9.63339595	    -12.71780880	     -7.79856860	     -4.83096832	      0.98830407
      5.69000000	     -0.62796307	     -4.65933338	    295.85382845	     -0.46754499	      0.92750591	      0.55567112	     20.49307181	     -7.63307042	     -0.64197527	    -47.67837460	     -2.50514813	     10.88241438	     -1.07295495	      6.81956771	     -2.30842797	    -17.29722495	      9.84301044	    -12.64668461	     -7.80820445	     -4.85736873	      0.50046811
      5.70000000	     -0.54723326	     -4.53822599	    297.51334916	     -0.46368869	      0.92705007	      0.56118329	     20.72570667	     -7.69535086	     -0.73947062	    -45.09433808	     -2.24116840	     10.69872421	     -1.39596237	      6.84556497	     -0.68189905	    -17.47455834	     10.09396658	    -12.56759342	     -7.78936240	     -4.87299340	     -0.01026903
      5.71000000	     -0.50803111	     -4.36264713	    299.17092223	     -0.45992470	      0.92638975	      0.56658861	     20.97688394	     -7.73084208	     -0.79917589	    -42.41400010	     -2.08787758	     10.71654598	     -1.58773321	      6.84420028	      0.93943563	    -17.76277398	     10.41153200	    -12.50626784	     -7.70499812	     -4.88811102	     -0.52334241
      5.72000000	     -0.48442332	     -4.20744163	    300.81779317	     -0.45622077	      0.92566685	      0.57194898	     21.14317144	     -7.72812295	     -0.81608333	    -39.61381592	     -2.01128489	     10.82056636	     -1.76953649	      6.80630793	      2.53401520	    -18.09228513	     10.74139157	    -12.41955110	     -7.63694861	     -4.88685514	     -1.04136561
      5.73000000	     -0.47590836	     -4.05291524	    302.44484706	     -0.45256889	      0.92484288	      0.57728194	     21.25488078	     -7.70337760	     -0.77818719	    -36.71786072	     -1.99367032	     11.06844173	     -1.92617200	      6.74376436	      4.07915280	    -18.45465910	     11.10167453	    -12.31063191	     -7.56061270	     -4.87851369	     -1.56655112
      5.74000000	     -0.46043466	     -3.91757134	    304.02879933	     -0.44895968	      0.92396328	      0.58261461	     21.28468632	     -7.66268852	     -0.65117931	    -33.72872293	     -2.01370203	     11.58232627	     -2.10146876	      6.66903520	      5.54860346	    -18.82232486	     11.46560854	    -12.14849883	     -7.50516031	     -4.87306567	     -2.04819057
      5.75000000	     -0.47707725	     -3.71459230	    305.57860395	     -0.44539760	      0.92285746	      0.58791074	     21.36394626	     -7.64348973	     -0.47891276	    -30.70518362	     -2.07912882	     12.00610222	     -2.16615331	      6.60515322	      6.95047477	    -19.25024138	     11.90189853	    -12.06668963	     -7.36649338	     -4.88980074	     -2.50513039
      5.76000000	     -0.45227817	     -3.55630212	    307.04501778	     -0.44182713	      0.92177802	      0.59333919	     21.32064700	     -7.62772229	     -0.19714883	    -27.61468024	     -2.11681104	     12.81579039	     -2.34419994	      6.53989289	      8.21338696	    -19.59494420	     12.29759100	    -11.91650389	     -7.27664870	     -4.92523539	     -2.90052342
      5.77000000	     -0.41933919	     -3.36678873	    308.44445114	     -0.43823658	      0.92056790	      0.59880744	     21.27523391	     -7.65624284	      0.12307693	    -24.52144192	     -2.15748041	     13.54744373	     -2.50522884	      6.50021502	      9.35762354	    -19.94095338	     12.73177379	    -11.81610449	     -7.15592505	     -4.99109358	     -3.23836848
      5.78000000	     -0.35387296	     -3.17523415	    309.75709645	     -0.43461199	      0.91930519	      0.60439600	     21.18783835	     -7.72789064	      0.46894749	    -21.44393345	     -2.18219497	     14.33377596	     -2.72246072	      6.48292495	     10.36587662	    -20.23465546	     13.17214419	    -11.73170589	     -7.04161270	     -5.09460203	     -3.50506411
      5.79000000	     -0.24837671	     -2.98010536	    310.98008839	     -0.43093129	      0.91799812	      0.61010667	     21.06870753	     -7.85256374	      0.80019556	    -18.42402360	     -2.19482675	     15.15924275	     -3.00296911	      6.49428150	     11.23004006	    -20.47455158	     13.61690092	    -11.66724237	     -6.93866363	     -5.23803786	     -3.70196223
      5.80000000	     -0.11415133	     -2.78314095	    312.13717675	     -0.42716671	      0.91664322	      0.61592762	     20.93321459	     -8.02682940	      1.02572831	    -15.50951969	     -2.17316157	     15.93544282	     -3.33195931	      6.52125034	     11.95898918	    -20.68055361	     14.05971892	    -11.62959093	     -6.84410411	     -5.40619007	     -3.86979842
      5.81000000	      0.07065912	     -2.59150151	    313.18804067	     -0.42333484	      0.91528004	      0.62189672	     20.78802941	     -8.23995877	      1.18403989	    -12.75566731	     -2.15499479	     16.79651960	     -3.76082883	      6.57918985	     12.57097791	    -20.80142536	     14.50423206	    -11.60708234	     -6.77767881	     -5.61203833	     -3.93259523
      5.82000000	      0.29014676	     -2.40718671	    314.16001082	     -0.41947763	      0.91389989	      0.62799862	     20.65869876	     -8.47281854	      1.21145648	    -10.22422112	     -2.11159360	     17.64371181	     -4.24551290	      6.64824738	     13.05433216	    -20.90065823	     14.94277594	    -11.60518788	     -6.73953440	     -5.84569017	     -3.94329492
